G04 MADE WITH FRITZING*
G04 WWW.FRITZING.ORG*
G04 DOUBLE SIDED*
G04 HOLES PLATED*
G04 CONTOUR ON CENTER OF CONTOUR VECTOR*
%ASAXBY*%
%FSLAX23Y23*%
%MOIN*%
%OFA0B0*%
%SFA1.0B1.0*%
%ADD10C,0.039370*%
%ADD11C,0.075000*%
%ADD12C,0.082000*%
%ADD13C,0.059200*%
%ADD14C,0.067559*%
%ADD15C,0.057000*%
%ADD16C,0.064000*%
%ADD17C,0.078000*%
%ADD18R,0.082000X0.082000*%
%ADD19R,0.059200X0.059200*%
%ADD20C,0.012000*%
%LNCOPPER0*%
G90*
G70*
G54D10*
X2088Y464D03*
X2187Y385D03*
G54D11*
X792Y615D03*
X792Y515D03*
X792Y415D03*
G54D12*
X1225Y415D03*
X927Y415D03*
G54D13*
X150Y238D03*
X150Y474D03*
X150Y395D03*
X150Y316D03*
G54D14*
X2650Y818D03*
X2550Y818D03*
G54D15*
X838Y789D03*
X917Y789D03*
G54D16*
X1350Y769D03*
X1429Y769D03*
X1508Y769D03*
G54D15*
X1094Y789D03*
X1173Y789D03*
G54D12*
X455Y799D03*
X555Y799D03*
X655Y799D03*
G54D11*
X930Y513D03*
X1230Y513D03*
X2896Y434D03*
X2896Y134D03*
G54D10*
X553Y533D03*
G54D11*
X730Y188D03*
X430Y188D03*
X2600Y129D03*
X2600Y429D03*
X2748Y129D03*
X2748Y429D03*
G54D17*
X425Y415D03*
X425Y315D03*
G54D10*
X553Y346D03*
X1429Y248D03*
X1429Y582D03*
G54D16*
X110Y769D03*
X189Y769D03*
X268Y769D03*
G54D10*
X671Y651D03*
X504Y592D03*
X268Y592D03*
G54D18*
X1226Y415D03*
G54D19*
X150Y238D03*
G54D18*
X455Y799D03*
G54D20*
X171Y316D02*
X297Y316D01*
D02*
X149Y208D02*
X149Y70D01*
D02*
X721Y701D02*
X524Y701D01*
D02*
X777Y633D02*
X721Y701D01*
D02*
X681Y799D02*
X779Y798D01*
D02*
X1104Y414D02*
X1199Y415D01*
D02*
X779Y701D02*
X1104Y701D01*
D02*
X1104Y701D02*
X1104Y414D01*
D02*
X779Y798D02*
X779Y701D01*
D02*
X1350Y750D02*
X1351Y415D01*
D02*
X1351Y415D02*
X1252Y415D01*
D02*
X2187Y70D02*
X2187Y372D01*
D02*
X149Y70D02*
X2187Y70D01*
D02*
X2089Y119D02*
X2089Y451D01*
D02*
X298Y120D02*
X2089Y119D01*
D02*
X297Y316D02*
X298Y120D01*
D02*
X730Y347D02*
X566Y346D01*
D02*
X730Y211D02*
X730Y347D01*
D02*
X1971Y189D02*
X753Y188D01*
D02*
X1971Y532D02*
X1971Y189D01*
D02*
X2305Y129D02*
X2305Y532D01*
D02*
X2305Y532D02*
X1971Y532D01*
D02*
X2577Y129D02*
X2305Y129D01*
D02*
X1429Y568D02*
X1429Y261D01*
D02*
X454Y414D02*
X455Y772D01*
D02*
X450Y414D02*
X454Y414D01*
D02*
X828Y916D02*
X652Y917D01*
D02*
X652Y917D02*
X654Y825D01*
D02*
X906Y805D02*
X828Y916D01*
D02*
X524Y701D02*
X470Y777D01*
D02*
X553Y592D02*
X553Y651D01*
D02*
X553Y651D02*
X658Y651D01*
D02*
X268Y750D02*
X268Y605D01*
D02*
X517Y592D02*
X553Y592D01*
G04 End of Copper0*
M02*