; NON-PLATED HOLES START AT T1
; THROUGH (PLATED) HOLES START AT T100
M48
INCH
T100C0.032000
T101C0.042000
T102C0.038000
T103C0.027559
T104C0.015748
T105C0.035000
%
T100
X001495Y003951
X001495Y003163
X001495Y002376
X001495Y004738
T101
X006546Y007986
X009270Y004148
X005546Y007986
X012250Y004148
X004546Y007986
T102
X004250Y003148
X004250Y004148
T103
X014290Y007691
X010943Y007888
X008384Y007888
X015077Y007691
X009172Y007888
X013502Y007691
X002676Y007691
X026495Y008183
X001101Y007691
X011731Y007888
X025495Y008183
X001888Y007691
T104
X020884Y004640
X005530Y003459
X006711Y006510
X005530Y005329
X002675Y005916
X014290Y005815
X021869Y003852
X005037Y005916
X014290Y002480
T105
X004302Y001884
X028955Y001344
X026002Y004293
X007919Y006148
X007302Y001884
X026002Y001293
X012297Y005132
X007919Y004148
X009297Y005132
X027479Y001293
X027479Y004293
X028955Y004344
X007919Y005148
T00
M30
