; NON-PLATED HOLES START AT T1
; THROUGH (PLATED) HOLES START AT T100
M48
INCH
T100C0.038000
T101C0.042000
T102C0.027559
T103C0.015748
T104C0.032000
T105C0.035000
%
T100
X004250Y004148
X004250Y003148
T101
X012250Y004148
X005546Y007986
X006546Y007986
X004546Y007986
X009270Y004148
T102
X002676Y007691
X011731Y007888
X026495Y008183
X014290Y007691
X001888Y007691
X010943Y007888
X013502Y007691
X025495Y008183
X008384Y007888
X009172Y007888
X001101Y007691
X015077Y007691
T103
X005530Y003459
X002675Y005916
X006711Y006510
X014290Y002480
X021869Y003852
X005037Y005916
X014290Y005815
X020884Y004640
X005530Y005329
T104
X001494Y003163
X001494Y002376
X001494Y003951
X001494Y004738
T105
X026002Y001293
X007302Y001884
X028955Y001344
X026002Y004293
X012297Y005132
X007919Y004148
X027479Y001293
X004302Y001884
X007919Y005148
X028955Y004344
X009297Y005132
X027479Y004293
X007919Y006148
T00
M30
