G04 MADE WITH FRITZING*
G04 WWW.FRITZING.ORG*
G04 DOUBLE SIDED*
G04 HOLES PLATED*
G04 CONTOUR ON CENTER OF CONTOUR VECTOR*
%ASAXBY*%
%FSLAX23Y23*%
%MOIN*%
%OFA0B0*%
%SFA1.0B1.0*%
%ADD10C,0.049370*%
%ADD11C,0.085000*%
%ADD12C,0.092000*%
%ADD13C,0.069200*%
%ADD14C,0.077559*%
%ADD15C,0.067000*%
%ADD16C,0.074000*%
%ADD17C,0.088000*%
%ADD18R,0.092000X0.092000*%
%ADD19R,0.069200X0.069200*%
%LNMASK0*%
G90*
G70*
G54D10*
X2088Y464D03*
X2187Y385D03*
G54D11*
X792Y615D03*
X792Y515D03*
X792Y415D03*
G54D12*
X1225Y415D03*
X927Y415D03*
G54D13*
X150Y238D03*
X150Y474D03*
X150Y395D03*
X150Y316D03*
G54D14*
X2650Y818D03*
X2550Y818D03*
G54D15*
X838Y789D03*
X917Y789D03*
G54D16*
X1350Y769D03*
X1429Y769D03*
X1508Y769D03*
G54D15*
X1094Y789D03*
X1173Y789D03*
G54D12*
X455Y799D03*
X555Y799D03*
X655Y799D03*
G54D11*
X930Y513D03*
X1230Y513D03*
X2896Y434D03*
X2896Y134D03*
G54D10*
X553Y533D03*
G54D11*
X730Y188D03*
X430Y188D03*
X2600Y129D03*
X2600Y429D03*
X2748Y129D03*
X2748Y429D03*
G54D17*
X425Y415D03*
X425Y315D03*
G54D10*
X553Y346D03*
X1429Y248D03*
X1429Y582D03*
G54D16*
X110Y769D03*
X189Y769D03*
X268Y769D03*
G54D10*
X671Y651D03*
X504Y592D03*
X268Y592D03*
G54D18*
X1226Y415D03*
G54D19*
X150Y238D03*
G54D18*
X455Y799D03*
G04 End of Mask0*
M02*